<svg xmlns="http://www.w3.org/2000/svg" xmlns:xlink="http://www.w3.org/1999/xlink" width="32" height="25" viewBox="0 0 32 25">
  <defs>
    <clipPath id="clip-path">
      <rect id="Rectangle_23" data-name="Rectangle 23" width="32" height="25" transform="translate(0 -0.325)" fill="none"/>
    </clipPath>
  </defs>
  <g id="Group_46" data-name="Group 46" transform="translate(0 0.325)">
    <g id="Group_45" data-name="Group 45" clip-path="url(#clip-path)">
      <path id="Path_12" data-name="Path 12" d="M28.2,2.644a.884.884,0,0,1,.881.881V5.287H2.644V3.525a.884.884,0,0,1,.881-.881Zm.881,7.931V21.15a.884.884,0,0,1-.881.881H3.525a.884.884,0,0,1-.881-.881V10.575ZM3.525,0A3.528,3.528,0,0,0,0,3.525V21.15a3.528,3.528,0,0,0,3.525,3.525H28.2a3.528,3.528,0,0,0,3.525-3.525V3.525A3.528,3.528,0,0,0,28.2,0ZM6.609,16.744a1.322,1.322,0,0,0,0,2.644H9.253a1.322,1.322,0,0,0,0-2.644Zm7.05,0a1.322,1.322,0,0,0,0,2.644h6.169a1.322,1.322,0,0,0,0-2.644Z"/>
    </g>
  </g>
</svg>
