<svg xmlns="http://www.w3.org/2000/svg" xmlns:xlink="http://www.w3.org/1999/xlink" width="45" height="24" viewBox="0 0 45 24">
  <defs>
    <clipPath id="clip-path">
      <rect id="Rectangle_20" data-name="Rectangle 20" width="45" height="24" transform="translate(0 0)" fill="none"/>
    </clipPath>
  </defs>
  <g id="Group_34" data-name="Group 34" transform="translate(0 -0.057)">
    <g id="Group_33" data-name="Group 33" transform="translate(0 0.057)" clip-path="url(#clip-path)">
      <path id="Path_1" data-name="Path 1" d="M33.126,0H12a12,12,0,0,0,0,24H33.126a12,12,0,1,0,0-24" transform="translate(0 -0.044)" fill="#fff"/>
      <path id="Path_2" data-name="Path 2" d="M33.126.972a10.888,10.888,0,0,1,4.279.87,11.128,11.128,0,0,1,5.881,5.881,10.955,10.955,0,0,1,0,8.558,11.128,11.128,0,0,1-5.881,5.881,10.888,10.888,0,0,1-4.279.87H12a10.888,10.888,0,0,1-4.279-.87,11.128,11.128,0,0,1-5.881-5.881,10.955,10.955,0,0,1,0-8.558A11.128,11.128,0,0,1,7.723,1.842,10.888,10.888,0,0,1,12,.972Zm0-.972H12a12,12,0,0,0,0,24H33.126a12,12,0,1,0,0-24" transform="translate(0 -0.044)" fill="#3c4043"/>
      <path id="Path_3" data-name="Path 3" d="M340.552,130.635v3.631H339.4V125.3h3.055a2.755,2.755,0,0,1,1.974.774,2.585,2.585,0,0,1,0,3.793,2.75,2.75,0,0,1-1.974.762h-1.9Zm0-4.231v3.127h1.926a1.538,1.538,0,0,0,1.14-.462,1.511,1.511,0,0,0,.462-1.1,1.6,1.6,0,0,0-1.6-1.56h-1.926Z" transform="translate(-319.032 -117.824)" fill="#3c4043"/>
      <path id="Path_4" data-name="Path 4" d="M445.276,169.1a2.85,2.85,0,0,1,2.016.684,2.427,2.427,0,0,1,.738,1.872v3.781h-1.1v-.852h-.048a2.192,2.192,0,0,1-1.9,1.05,2.47,2.47,0,0,1-1.7-.6,1.916,1.916,0,0,1-.684-1.5,1.812,1.812,0,0,1,.72-1.512,3.021,3.021,0,0,1,1.92-.564,3.357,3.357,0,0,1,1.686.378v-.264a1.308,1.308,0,0,0-.474-1.02,1.626,1.626,0,0,0-1.116-.42,1.751,1.751,0,0,0-1.524.816l-1.014-.636a2.814,2.814,0,0,1,2.478-1.212m-1.488,4.453a.909.909,0,0,0,.384.75,1.41,1.41,0,0,0,.894.3,1.828,1.828,0,0,0,1.3-.54,1.7,1.7,0,0,0,.57-1.266,2.374,2.374,0,0,0-1.5-.426,1.969,1.969,0,0,0-1.17.336,1.025,1.025,0,0,0-.474.846" transform="translate(-416.039 -158.996)" fill="#3c4043"/>
      <path id="Path_5" data-name="Path 5" d="M541.433,172.4l-3.841,8.834H536.4l1.428-3.091L535.3,172.4h1.254l1.824,4.4h.024l1.776-4.4Z" transform="translate(-503.176 -162.098)" fill="#3c4043"/>
      <path id="Path_6" data-name="Path 6" d="M205.076,185.071a6.062,6.062,0,0,0-.1-1.081h-4.83v1.98h2.782a2.383,2.383,0,0,1-1.032,1.6v1.285h1.656a5.033,5.033,0,0,0,1.521-3.78" transform="translate(-188.139 -172.992)" fill="#4285f4"/>
      <path id="Path_7" data-name="Path 7" d="M129.953,218.059a3.115,3.115,0,0,1-4.635-1.629H123.61v1.325a5.141,5.141,0,0,0,4.594,2.831,4.9,4.9,0,0,0,3.4-1.243Z" transform="translate(-116.192 -203.486)" fill="#34a853"/>
      <path id="Path_8" data-name="Path 8" d="M116.594,163.889a3.1,3.1,0,0,1,.161-.984V161.58h-1.708a5.148,5.148,0,0,0,0,4.617l1.708-1.325a3.1,3.1,0,0,1-.161-.984" transform="translate(-107.629 -151.927)" fill="#fabb05"/>
      <path id="Path_9" data-name="Path 9" d="M128.2,116.434a2.794,2.794,0,0,1,1.973.771l1.467-1.466a4.939,4.939,0,0,0-3.44-1.339,5.142,5.142,0,0,0-4.594,2.831l1.708,1.325a3.076,3.076,0,0,1,2.887-2.122" transform="translate(-116.192 -107.579)" fill="#e94235"/>
    </g>
  </g>
</svg>
